<?xml version="1.0" encoding="UTF-8" standalone="no"?>
<svg
   xmlns:dc="http://purl.org/dc/elements/1.1/"
   xmlns:cc="http://creativecommons.org/ns#"
   xmlns:rdf="http://www.w3.org/1999/02/22-rdf-syntax-ns#"
   xmlns:svg="http://www.w3.org/2000/svg"
   xmlns="http://www.w3.org/2000/svg"
   xmlns:sodipodi="http://sodipodi.sourceforge.net/DTD/sodipodi-0.dtd"
   xmlns:inkscape="http://www.inkscape.org/namespaces/inkscape"
   width="192"
   height="192"
   viewBox="0 0 192 192"
   id="svg2"
   version="1.1"
   inkscape:version="0.48.5 r10040"
   sodipodi:docname="ic_launcher.svg">
  <sodipodi:namedview
     pagecolor="#ffffff"
     bordercolor="#666666"
     borderopacity="1"
     objecttolerance="10"
     gridtolerance="10"
     guidetolerance="10"
     inkscape:pageopacity="0"
     inkscape:pageshadow="2"
     inkscape:window-width="2558"
     inkscape:window-height="1419"
     id="namedview47"
     showgrid="false"
     inkscape:zoom="3.6875"
     inkscape:cx="-44.591671"
     inkscape:cy="63.347499"
     inkscape:window-x="0"
     inkscape:window-y="19"
     inkscape:window-maximized="1"
     inkscape:current-layer="svg2" />
  <defs
     id="defs4">
    <filter
       id="filter5213"
       x="-0.18000001"
       y="-0.13"
       width="1.35"
       height="1.38"
       color-interpolation-filters="sRGB">
      <feFlood
         flood-opacity="0.490196"
         flood-color="rgb(0,0,0)"
         result="flood"
         id="feFlood5215" />
      <feComposite
         in="flood"
         in2="SourceGraphic"
         operator="in"
         result="composite1"
         id="feComposite5217" />
      <feGaussianBlur
         in="composite1"
         stdDeviation="3"
         result="blur"
         id="feGaussianBlur5219" />
      <feOffset
         dx="0"
         dy="3"
         result="offset"
         id="feOffset5221" />
      <feComposite
         in="SourceGraphic"
         in2="offset"
         operator="over"
         result="composite2"
         id="feComposite5223" />
    </filter>
    <filter
       id="filter5225"
       width="1.38"
       height="1.35"
       y="-0.17"
       x="-0.17"
       color-interpolation-filters="sRGB">
      <feFlood
         flood-opacity="0.490196"
         flood-color="rgb(0,0,0)"
         result="flood"
         id="feFlood5227" />
      <feComposite
         in="flood"
         in2="SourceGraphic"
         operator="in"
         result="composite1"
         id="feComposite5229" />
      <feGaussianBlur
         in="composite1"
         stdDeviation="3"
         result="blur"
         id="feGaussianBlur5231" />
      <feOffset
         dx="0"
         dy="3"
         result="offset"
         id="feOffset5233" />
      <feComposite
         in="SourceGraphic"
         in2="offset"
         operator="over"
         result="composite2"
         id="feComposite5235" />
    </filter>
    <filter
       id="filter5611"
       height="1.24"
       color-interpolation-filters="sRGB">
      <feFlood
         flood-opacity="0.588235"
         flood-color="rgb(0,0,0)"
         result="flood"
         id="feFlood5613" />
      <feComposite
         in="flood"
         in2="SourceGraphic"
         operator="in"
         result="composite1"
         id="feComposite5615" />
      <feGaussianBlur
         in="composite1"
         stdDeviation="4.5"
         result="blur"
         id="feGaussianBlur5617" />
      <feOffset
         dx="0"
         dy="3.5"
         result="offset"
         id="feOffset5619" />
      <feComposite
         in="SourceGraphic"
         in2="offset"
         operator="over"
         result="composite2"
         id="feComposite5621" />
    </filter>
    <filter
       id="filter4535"
       color-interpolation-filters="sRGB">
      <feFlood
         id="feFlood4537"
         result="flood"
         flood-color="rgb(0,0,0)"
         flood-opacity="0.470588" />
      <feComposite
         id="feComposite4539"
         result="composite1"
         operator="in"
         in2="SourceGraphic"
         in="flood" />
      <feGaussianBlur
         id="feGaussianBlur4541"
         result="blur"
         stdDeviation="3.5"
         in="composite1" />
      <feOffset
         id="feOffset4543"
         result="offset"
         dy="2.5"
         dx="0" />
      <feComposite
         id="feComposite4545"
         result="composite2"
         operator="over"
         in2="offset"
         in="SourceGraphic" />
    </filter>
  </defs>
  <metadata
     id="metadata7">
    <rdf:RDF>
      <cc:Work
         rdf:about="">
        <dc:format>image/svg+xml</dc:format>
        <dc:type
           rdf:resource="http://purl.org/dc/dcmitype/StillImage" />
        <dc:title />
      </cc:Work>
    </rdf:RDF>
  </metadata>
  <g
     style="filter:url(#filter4535)"
     id="g4474"
     transform="matrix(0.43316044,0,0,0.43316044,-14.098307,-11.048233)">
    <rect
       style="fill:#79b149;fill-opacity:1;stroke:none"
       id="rect5259-0-0-1"
       width="88.778572"
       height="56.892868"
       x="167.50708"
       y="213.82246" />
    <path
       style="fill:#c8c8c8;fill-opacity:1;fill-rule:evenodd;stroke:none"
       d="m 100.47841,72.658964 c -14.074422,0 -25.40509,11.373 -25.40509,25.5 l 0,36.779306 359.2827,0 0,-36.779306 c 0,-14.127 -11.33067,-25.5 -25.40508,-25.5 l -308.47253,0 z"
       id="rect3338"
       inkscape:connector-curvature="0" />
    <circle
       style="fill:#ffffff;fill-opacity:1;stroke:#ffffff;stroke-width:0.82922643;stroke-opacity:1;filter:url(#filter5225)"
       id="path4140"
       cx="154.04826"
       cy="643.50293"
       r="16.752903"
       transform="matrix(0.85138023,0,0,0.85138023,26.529744,-443.54689)"
       sodipodi:cx="154.04826"
       sodipodi:cy="643.50293"
       sodipodi:rx="16.752903"
       sodipodi:ry="16.752903"
       d="m 170.80117,643.50293 c 0,9.25237 -7.50053,16.7529 -16.75291,16.7529 -9.25237,0 -16.7529,-7.50053 -16.7529,-16.7529 0,-9.25237 7.50053,-16.7529 16.7529,-16.7529 9.25238,0 16.75291,7.50053 16.75291,16.7529 z" />
    <circle
       style="fill:#ffffff;fill-opacity:1;stroke:#ffffff;stroke-width:0.82922643;stroke-opacity:1;filter:url(#filter5213)"
       id="path4140-3"
       cx="355.5737"
       cy="643.50293"
       r="16.752903"
       transform="matrix(0.85138023,0,0,0.85138023,53.803863,-445.54372)"
       sodipodi:cx="355.5737"
       sodipodi:cy="643.50293"
       sodipodi:rx="16.752903"
       sodipodi:ry="16.752903"
       d="m 372.3266,643.50293 c 0,9.25237 -7.50053,16.7529 -16.7529,16.7529 -9.25237,0 -16.7529,-7.50053 -16.7529,-16.7529 0,-9.25237 7.50053,-16.7529 16.7529,-16.7529 9.25237,0 16.7529,7.50053 16.7529,16.7529 z" />
    <path
       style="fill:#8bc34a;fill-opacity:1;fill-rule:evenodd;stroke:none"
       d="m 75.254268,134.04073 0,258.91638 c 0,14.04796 11.325303,25.35734 25.393042,25.35734 l 308.32646,0 c 14.06776,0 25.39306,-11.30938 25.39306,-25.35734 l 0,-258.91638 -359.112562,0 z"
       id="rect3338-6"
       inkscape:connector-curvature="0" />
    <rect
       style="fill:#689f38;fill-opacity:1;stroke:none"
       id="rect5259"
       width="92.207443"
       height="180.13148"
       x="75.234161"
       y="134.04073" />
    <rect
       style="fill:#4caf50;fill-opacity:1;stroke:none"
       id="rect5259-0"
       width="89.336426"
       height="147.80659"
       x="167.50708"
       y="270.50784" />
    <rect
       style="fill:#38823c;fill-opacity:1;stroke:none"
       id="rect5259-0-3"
       width="89.336426"
       height="80.126381"
       x="167.50708"
       y="134.04073" />
    <rect
       style="fill:#689f38;fill-opacity:1;stroke:none"
       id="rect5259-0-0-7"
       width="89.336426"
       height="173.05911"
       x="255.92883"
       y="245.25534" />
    <rect
       style="fill:#4caf50;fill-opacity:1;stroke:none"
       id="rect5259-0-2"
       width="89.606911"
       height="147.80659"
       x="344.91336"
       y="200.52528" />
    <rect
       style="fill:#3d8b3f;fill-opacity:1;stroke:none"
       id="rect5259-0-0"
       width="89.336426"
       height="114.5923"
       x="255.92883"
       y="134.04073" />
  </g>
  <circle
     r="94.449265"
     cy="349.87064"
     cx="363.14981"
     id="path5429"
     style="fill:#276528;fill-opacity:1;stroke:none;filter:url(#filter5611)"
     sodipodi:cx="363.14981"
     sodipodi:cy="349.87064"
     sodipodi:rx="94.449265"
     sodipodi:ry="94.449265"
     transform="matrix(0.41938045,0,0,0.41938045,-9.7377397,-6.3686079)" />
  <g
     transform="matrix(0.42881538,0,0,0.42881538,-12.843854,-4.6989365)"
     id="g4238">
    <rect
       style="fill:none;stroke:#ffffff;stroke-width:5.9689045;stroke-linejoin:miter;stroke-miterlimit:4;stroke-opacity:1;stroke-dasharray:none"
       id="rect4186"
       width="73.497017"
       height="40.836697"
       x="326.65302"
       y="339.00919"
       ry="7.448308" />
    <rect
       style="fill:#ffffff;fill-opacity:1;stroke:none"
       id="rect4188"
       width="107.64169"
       height="12.858657"
       x="309.81519"
       y="372.76877"
       ry="5.7358427" />
    <rect
       style="fill:#ffffff;fill-opacity:1;stroke:none"
       id="rect4190"
       width="8.1519403"
       height="26.826847"
       x="340.53464"
       y="314.37054" />
    <rect
       style="fill:#ffffff;fill-opacity:1;stroke:none"
       id="rect4190-6"
       width="8.1519403"
       height="26.826847"
       x="358.91821"
       y="314.17035" />
    <rect
       style="fill:#ffffff;fill-opacity:1;stroke:none"
       id="rect4190-2"
       width="8.1519403"
       height="26.826847"
       x="377.30179"
       y="313.76999" />
    <path
       inkscape:connector-curvature="0"
       style="fill:#ffffff;fill-opacity:1;fill-rule:evenodd;stroke:none"
       d="m 344.54293,292.33074 c 0,0 -6.55558,9.69859 -5.90485,13.25213 0.62061,3.38896 2.77899,5.78758 5.90485,5.78275 3.14256,-0.005 5.32744,-2.44027 6.08655,-5.78275 0.86794,-3.82178 -6.08655,-13.25213 -6.08655,-13.25213 z"
       id="path4213" />
    <path
       inkscape:connector-curvature="0"
       style="fill:#ffffff;fill-opacity:1;fill-rule:evenodd;stroke:none"
       d="m 362.78325,292.09597 c 0,0 -6.55558,9.69859 -5.90483,13.25213 0.6206,3.38896 2.77898,5.78758 5.90483,5.78275 3.14257,-0.005 5.32743,-2.44027 6.08654,-5.78275 0.86795,-3.82178 -6.08654,-13.25213 -6.08654,-13.25213 z"
       id="path4213-4" />
    <path
       inkscape:connector-curvature="0"
       style="fill:#ffffff;fill-opacity:1;fill-rule:evenodd;stroke:none"
       d="m 381.2833,292.09597 c 0,0 -6.55558,9.69859 -5.90485,13.25213 0.62061,3.38896 2.77897,5.78758 5.90485,5.78275 3.14256,-0.005 5.32743,-2.44027 6.08654,-5.78275 0.86795,-3.82178 -6.08654,-13.25213 -6.08654,-13.25213 z"
       id="path4213-0" />
    <rect
       style="fill:#ffffff;fill-opacity:1;stroke:none"
       id="rect4236"
       width="75.28492"
       height="5.4520273"
       x="325.37485"
       y="355.45218"
       ry="2.7260137" />
  </g>
</svg>
