<?xml version="1.0" encoding="UTF-8" standalone="no"?>
<svg
   xmlns:dc="http://purl.org/dc/elements/1.1/"
   xmlns:cc="http://creativecommons.org/ns#"
   xmlns:rdf="http://www.w3.org/1999/02/22-rdf-syntax-ns#"
   xmlns:svg="http://www.w3.org/2000/svg"
   xmlns="http://www.w3.org/2000/svg"
   xmlns:xlink="http://www.w3.org/1999/xlink"
   xmlns:sodipodi="http://sodipodi.sourceforge.net/DTD/sodipodi-0.dtd"
   xmlns:inkscape="http://www.inkscape.org/namespaces/inkscape"
   width="192"
   height="192"
   viewBox="0 0 192 192"
   id="svg2"
   version="1.1"
   inkscape:version="0.48.5 r10040"
   sodipodi:docname="ic_launcher_workaround.svg"
   inkscape:export-filename="/home/schuerm/Projekte/Birthday Adapter/Resources/google_icon_workaround.png"
   inkscape:export-xdpi="240"
   inkscape:export-ydpi="240">
  <sodipodi:namedview
     pagecolor="#ffffff"
     bordercolor="#666666"
     borderopacity="1"
     objecttolerance="10"
     gridtolerance="10"
     guidetolerance="10"
     inkscape:pageopacity="0"
     inkscape:pageshadow="2"
     inkscape:window-width="2558"
     inkscape:window-height="1419"
     id="namedview47"
     showgrid="false"
     inkscape:zoom="1.84375"
     inkscape:cx="28.834297"
     inkscape:cy="81.431379"
     inkscape:window-x="0"
     inkscape:window-y="19"
     inkscape:window-maximized="1"
     inkscape:current-layer="svg2" />
  <defs
     id="defs4">
    <filter
       id="filter5213"
       x="-0.18000001"
       y="-0.13"
       width="1.35"
       height="1.38"
       color-interpolation-filters="sRGB">
      <feFlood
         flood-opacity="0.490196"
         flood-color="rgb(0,0,0)"
         result="flood"
         id="feFlood5215" />
      <feComposite
         in="flood"
         in2="SourceGraphic"
         operator="in"
         result="composite1"
         id="feComposite5217" />
      <feGaussianBlur
         in="composite1"
         stdDeviation="3"
         result="blur"
         id="feGaussianBlur5219" />
      <feOffset
         dx="0"
         dy="3"
         result="offset"
         id="feOffset5221" />
      <feComposite
         in="SourceGraphic"
         in2="offset"
         operator="over"
         result="composite2"
         id="feComposite5223" />
    </filter>
    <filter
       id="filter5225"
       width="1.38"
       height="1.35"
       y="-0.17"
       x="-0.17"
       color-interpolation-filters="sRGB">
      <feFlood
         flood-opacity="0.490196"
         flood-color="rgb(0,0,0)"
         result="flood"
         id="feFlood5227" />
      <feComposite
         in="flood"
         in2="SourceGraphic"
         operator="in"
         result="composite1"
         id="feComposite5229" />
      <feGaussianBlur
         in="composite1"
         stdDeviation="3"
         result="blur"
         id="feGaussianBlur5231" />
      <feOffset
         dx="0"
         dy="3"
         result="offset"
         id="feOffset5233" />
      <feComposite
         in="SourceGraphic"
         in2="offset"
         operator="over"
         result="composite2"
         id="feComposite5235" />
    </filter>
    <filter
       id="filter5611"
       height="1.24"
       color-interpolation-filters="sRGB">
      <feFlood
         flood-opacity="0.588235"
         flood-color="rgb(0,0,0)"
         result="flood"
         id="feFlood5613" />
      <feComposite
         in="flood"
         in2="SourceGraphic"
         operator="in"
         result="composite1"
         id="feComposite5615" />
      <feGaussianBlur
         in="composite1"
         stdDeviation="4.5"
         result="blur"
         id="feGaussianBlur5617" />
      <feOffset
         dx="0"
         dy="3.5"
         result="offset"
         id="feOffset5619" />
      <feComposite
         in="SourceGraphic"
         in2="offset"
         operator="over"
         result="composite2"
         id="feComposite5621" />
    </filter>
    <filter
       id="filter4535"
       color-interpolation-filters="sRGB">
      <feFlood
         id="feFlood4537"
         result="flood"
         flood-color="rgb(0,0,0)"
         flood-opacity="0.470588" />
      <feComposite
         id="feComposite4539"
         result="composite1"
         operator="in"
         in2="SourceGraphic"
         in="flood" />
      <feGaussianBlur
         id="feGaussianBlur4541"
         result="blur"
         stdDeviation="3.5"
         in="composite1" />
      <feOffset
         id="feOffset4543"
         result="offset"
         dy="2.5"
         dx="0" />
      <feComposite
         id="feComposite4545"
         result="composite2"
         operator="over"
         in2="offset"
         in="SourceGraphic" />
    </filter>
    <radialGradient
       r="17.6875"
       fy="39.125"
       fx="24.8125"
       cy="39.125"
       cx="24.8125"
       gradientTransform="matrix(1,0,0,0.374558,0,24.47041)"
       gradientUnits="userSpaceOnUse"
       id="radialGradient2260"
       xlink:href="#linearGradient3041"
       inkscape:collect="always" />
    <linearGradient
       gradientUnits="userSpaceOnUse"
       y2="9.6568537"
       x2="40.859177"
       y1="19.821514"
       x1="31.177404"
       id="linearGradient2256"
       xlink:href="#linearGradient2250"
       inkscape:collect="always" />
    <linearGradient
       gradientTransform="matrix(0.878099,-0.0173237,0.0173237,0.878099,2.163687,4.067899)"
       gradientUnits="userSpaceOnUse"
       y2="38.268368"
       x2="15.415793"
       y1="36.942543"
       x1="14.017542"
       id="linearGradient2271"
       xlink:href="#linearGradient2265"
       inkscape:collect="always" />
    <linearGradient
       gradientTransform="matrix(1.007254,-0.02636526,0.02636526,1.007254,1.593411,0.079191)"
       gradientUnits="userSpaceOnUse"
       y2="33.194965"
       x2="10.650805"
       y1="35.688461"
       x1="12.004697"
       id="linearGradient2263"
       xlink:href="#linearGradient2257"
       inkscape:collect="always" />
    <linearGradient
       gradientTransform="matrix(0.87827,0,0,0.87827,2.536988,4.967681)"
       gradientUnits="userSpaceOnUse"
       y2="39.443218"
       x2="16.915297"
       y1="32.28376"
       x1="9.7503242"
       id="linearGradient3093"
       xlink:href="#linearGradient3087"
       inkscape:collect="always" />
    <linearGradient
       gradientTransform="matrix(0.87827,0,0,0.87827,2.847503,5.588712)"
       gradientUnits="userSpaceOnUse"
       y2="6.6285896"
       x2="37.53537"
       y1="13.602527"
       x1="38.227654"
       id="linearGradient3083"
       xlink:href="#linearGradient3077"
       inkscape:collect="always" />
    <linearGradient
       gradientTransform="matrix(0.87827,0,0,0.87827,5.328299,1.650243)"
       gradientUnits="userSpaceOnUse"
       y2="-4.3002653"
       x2="25.291086"
       y1="-3.6324477"
       x1="50.152931"
       id="linearGradient3067"
       xlink:href="#linearGradient3061"
       inkscape:collect="always" />
    <linearGradient
       gradientTransform="matrix(0.87827,0,0,0.87827,2.536988,4.967681)"
       gradientUnits="userSpaceOnUse"
       y2="6.7758031"
       x2="20.631224"
       y1="42.253601"
       x1="19.648342"
       id="linearGradient3055"
       xlink:href="#linearGradient3049"
       inkscape:collect="always" />
    <radialGradient
       gradientUnits="userSpaceOnUse"
       gradientTransform="matrix(1,0,0,0.374558,0,24.47041)"
       r="17.6875"
       fy="39.125"
       fx="24.8125"
       cy="39.125"
       cx="24.8125"
       id="radialGradient3047"
       xlink:href="#linearGradient3041"
       inkscape:collect="always" />
    <linearGradient
       id="linearGradient3041"
       inkscape:collect="always">
      <stop
         id="stop3043"
         offset="0"
         style="stop-color:#000000;stop-opacity:1;" />
      <stop
         id="stop3045"
         offset="1"
         style="stop-color:#000000;stop-opacity:0;" />
    </linearGradient>
    <linearGradient
       id="linearGradient3049">
      <stop
         id="stop3051"
         offset="0"
         style="stop-color:#b6b6b6;stop-opacity:1;" />
      <stop
         style="stop-color:#f2f2f2;stop-opacity:1;"
         offset="0.5"
         id="stop2262" />
      <stop
         id="stop2264"
         offset="0.67612958"
         style="stop-color:#fafafa;stop-opacity:1;" />
      <stop
         style="stop-color:#d8d8d8;stop-opacity:1;"
         offset="0.84051722"
         id="stop2268" />
      <stop
         style="stop-color:#f2f2f2;stop-opacity:1;"
         offset="0.875"
         id="stop2266" />
      <stop
         id="stop3053"
         offset="1"
         style="stop-color:#dbdbdb;stop-opacity:1;" />
    </linearGradient>
    <linearGradient
       id="linearGradient3061">
      <stop
         id="stop3063"
         offset="0"
         style="stop-color:#ffffff;stop-opacity:1;" />
      <stop
         id="stop3065"
         offset="1"
         style="stop-color:#000000;stop-opacity:1;" />
    </linearGradient>
    <linearGradient
       id="linearGradient3077">
      <stop
         id="stop3079"
         offset="0"
         style="stop-color:#98a0a9;stop-opacity:1;" />
      <stop
         id="stop3081"
         offset="1"
         style="stop-color:#c3d0dd;stop-opacity:1;" />
    </linearGradient>
    <linearGradient
       id="linearGradient3087">
      <stop
         id="stop3089"
         offset="0"
         style="stop-color:#3465a4;stop-opacity:1;" />
      <stop
         style="stop-color:#9fbce1;stop-opacity:1;"
         offset="0"
         id="stop3095" />
      <stop
         id="stop2242"
         offset="0"
         style="stop-color:#6b95ca;stop-opacity:1;" />
      <stop
         style="stop-color:#3d6aa5;stop-opacity:1;"
         offset="0.75"
         id="stop2244" />
      <stop
         id="stop3091"
         offset="1"
         style="stop-color:#386eb4;stop-opacity:1;" />
    </linearGradient>
    <linearGradient
       id="linearGradient2257"
       inkscape:collect="always">
      <stop
         id="stop2259"
         offset="0"
         style="stop-color:#ffffff;stop-opacity:1;" />
      <stop
         id="stop2261"
         offset="1"
         style="stop-color:#ffffff;stop-opacity:0;" />
    </linearGradient>
    <linearGradient
       id="linearGradient2265"
       inkscape:collect="always">
      <stop
         id="stop2267"
         offset="0"
         style="stop-color:#000000;stop-opacity:1;" />
      <stop
         id="stop2269"
         offset="1"
         style="stop-color:#000000;stop-opacity:0;" />
    </linearGradient>
    <linearGradient
       id="linearGradient2250"
       inkscape:collect="always">
      <stop
         id="stop2252"
         offset="0"
         style="stop-color:#ffffff;stop-opacity:1;" />
      <stop
         id="stop2254"
         offset="1"
         style="stop-color:#ffffff;stop-opacity:0;" />
    </linearGradient>
    <inkscape:perspective
       id="perspective60"
       inkscape:persp3d-origin="24 : 16 : 1"
       inkscape:vp_z="48 : 24 : 1"
       inkscape:vp_y="0 : 1000 : 0"
       inkscape:vp_x="0 : 24 : 1"
       sodipodi:type="inkscape:persp3d" />
  </defs>
  <metadata
     id="metadata7">
    <rdf:RDF>
      <cc:Work
         rdf:about="">
        <dc:format>image/svg+xml</dc:format>
        <dc:type
           rdf:resource="http://purl.org/dc/dcmitype/StillImage" />
        <dc:title></dc:title>
      </cc:Work>
    </rdf:RDF>
  </metadata>
  <g
     style="filter:url(#filter4535)"
     id="g4474"
     transform="matrix(0.43316044,0,0,0.43316044,-14.098307,-11.048233)">
    <rect
       style="fill:#79b149;fill-opacity:1;stroke:none"
       id="rect5259-0-0-1"
       width="88.778572"
       height="56.892868"
       x="167.50708"
       y="213.82246" />
    <path
       style="fill:#c8c8c8;fill-opacity:1;fill-rule:evenodd;stroke:none"
       d="m 100.47841,72.658964 c -14.074422,0 -25.40509,11.373 -25.40509,25.5 l 0,36.779306 359.2827,0 0,-36.779306 c 0,-14.127 -11.33067,-25.5 -25.40508,-25.5 l -308.47253,0 z"
       id="rect3338"
       inkscape:connector-curvature="0" />
    <circle
       style="fill:#ffffff;fill-opacity:1;stroke:#ffffff;stroke-width:0.82922643;stroke-opacity:1;filter:url(#filter5225)"
       id="path4140"
       cx="154.04826"
       cy="643.50293"
       r="16.752903"
       transform="matrix(0.85138023,0,0,0.85138023,26.529744,-443.54689)"
       sodipodi:cx="154.04826"
       sodipodi:cy="643.50293"
       sodipodi:rx="16.752903"
       sodipodi:ry="16.752903"
       d="m 170.80117,643.50293 c 0,9.25237 -7.50053,16.7529 -16.75291,16.7529 -9.25237,0 -16.7529,-7.50053 -16.7529,-16.7529 0,-9.25237 7.50053,-16.7529 16.7529,-16.7529 9.25238,0 16.75291,7.50053 16.75291,16.7529 z" />
    <circle
       style="fill:#ffffff;fill-opacity:1;stroke:#ffffff;stroke-width:0.82922643;stroke-opacity:1;filter:url(#filter5213)"
       id="path4140-3"
       cx="355.5737"
       cy="643.50293"
       r="16.752903"
       transform="matrix(0.85138023,0,0,0.85138023,53.803863,-445.54372)"
       sodipodi:cx="355.5737"
       sodipodi:cy="643.50293"
       sodipodi:rx="16.752903"
       sodipodi:ry="16.752903"
       d="m 372.3266,643.50293 c 0,9.25237 -7.50053,16.7529 -16.7529,16.7529 -9.25237,0 -16.7529,-7.50053 -16.7529,-16.7529 0,-9.25237 7.50053,-16.7529 16.7529,-16.7529 9.25237,0 16.7529,7.50053 16.7529,16.7529 z" />
    <path
       style="fill:#8bc34a;fill-opacity:1;fill-rule:evenodd;stroke:none"
       d="m 75.254268,134.04073 0,258.91638 c 0,14.04796 11.325303,25.35734 25.393042,25.35734 l 308.32646,0 c 14.06776,0 25.39306,-11.30938 25.39306,-25.35734 l 0,-258.91638 -359.112562,0 z"
       id="rect3338-6"
       inkscape:connector-curvature="0" />
    <rect
       style="fill:#689f38;fill-opacity:1;stroke:none"
       id="rect5259"
       width="92.207443"
       height="180.13148"
       x="75.234161"
       y="134.04073" />
    <rect
       style="fill:#4caf50;fill-opacity:1;stroke:none"
       id="rect5259-0"
       width="89.336426"
       height="147.80659"
       x="167.50708"
       y="270.50784" />
    <rect
       style="fill:#38823c;fill-opacity:1;stroke:none"
       id="rect5259-0-3"
       width="89.336426"
       height="80.126381"
       x="167.50708"
       y="134.04073" />
    <rect
       style="fill:#689f38;fill-opacity:1;stroke:none"
       id="rect5259-0-0-7"
       width="89.336426"
       height="173.05911"
       x="255.92883"
       y="245.25534" />
    <rect
       style="fill:#4caf50;fill-opacity:1;stroke:none"
       id="rect5259-0-2"
       width="89.606911"
       height="147.80659"
       x="344.91336"
       y="200.52528" />
    <rect
       style="fill:#3d8b3f;fill-opacity:1;stroke:none"
       id="rect5259-0-0"
       width="89.336426"
       height="114.5923"
       x="255.92883"
       y="134.04073" />
  </g>
  <circle
     r="94.449265"
     cy="349.87064"
     cx="363.14981"
     id="path5429"
     style="fill:#276528;fill-opacity:1;stroke:none;filter:url(#filter5611)"
     sodipodi:cx="363.14981"
     sodipodi:cy="349.87064"
     sodipodi:rx="94.449265"
     sodipodi:ry="94.449265"
     transform="matrix(0.41938045,0,0,0.41938045,-9.7377397,-6.3686079)" />
  <g
     transform="matrix(0.42881538,0,0,0.42881538,-12.843854,-4.6989365)"
     id="g4238">
    <rect
       style="fill:none;stroke:#ffffff;stroke-width:5.9689045;stroke-linejoin:miter;stroke-miterlimit:4;stroke-opacity:1;stroke-dasharray:none"
       id="rect4186"
       width="73.497017"
       height="40.836697"
       x="326.65302"
       y="339.00919"
       ry="7.448308" />
    <rect
       style="fill:#ffffff;fill-opacity:1;stroke:none"
       id="rect4188"
       width="107.64169"
       height="12.858657"
       x="309.81519"
       y="372.76877"
       ry="5.7358427" />
    <rect
       style="fill:#ffffff;fill-opacity:1;stroke:none"
       id="rect4190"
       width="8.1519403"
       height="26.826847"
       x="340.53464"
       y="314.37054" />
    <rect
       style="fill:#ffffff;fill-opacity:1;stroke:none"
       id="rect4190-6"
       width="8.1519403"
       height="26.826847"
       x="358.91821"
       y="314.17035" />
    <rect
       style="fill:#ffffff;fill-opacity:1;stroke:none"
       id="rect4190-2"
       width="8.1519403"
       height="26.826847"
       x="377.30179"
       y="313.76999" />
    <path
       inkscape:connector-curvature="0"
       style="fill:#ffffff;fill-opacity:1;fill-rule:evenodd;stroke:none"
       d="m 344.54293,292.33074 c 0,0 -6.55558,9.69859 -5.90485,13.25213 0.62061,3.38896 2.77899,5.78758 5.90485,5.78275 3.14256,-0.005 5.32744,-2.44027 6.08655,-5.78275 0.86794,-3.82178 -6.08655,-13.25213 -6.08655,-13.25213 z"
       id="path4213" />
    <path
       inkscape:connector-curvature="0"
       style="fill:#ffffff;fill-opacity:1;fill-rule:evenodd;stroke:none"
       d="m 362.78325,292.09597 c 0,0 -6.55558,9.69859 -5.90483,13.25213 0.6206,3.38896 2.77898,5.78758 5.90483,5.78275 3.14257,-0.005 5.32743,-2.44027 6.08654,-5.78275 0.86795,-3.82178 -6.08654,-13.25213 -6.08654,-13.25213 z"
       id="path4213-4" />
    <path
       inkscape:connector-curvature="0"
       style="fill:#ffffff;fill-opacity:1;fill-rule:evenodd;stroke:none"
       d="m 381.2833,292.09597 c 0,0 -6.55558,9.69859 -5.90485,13.25213 0.62061,3.38896 2.77897,5.78758 5.90485,5.78275 3.14256,-0.005 5.32743,-2.44027 6.08654,-5.78275 0.86795,-3.82178 -6.08654,-13.25213 -6.08654,-13.25213 z"
       id="path4213-0" />
    <rect
       style="fill:#ffffff;fill-opacity:1;stroke:none"
       id="rect4236"
       width="75.28492"
       height="5.4520273"
       x="325.37485"
       y="355.45218"
       ry="2.7260137" />
  </g>
  <g
     inkscape:label="Layer 1"
     id="layer1"
     transform="matrix(1.8832744,0,0,1.8832744,23.305403,41.251103)">
    <g
       id="g3359">
      <path
         transform="matrix(0.751118,0,0,0.578703,17.04087,19.36341)"
         d="m 42.5,39.125 c 0,3.658886 -7.918963,6.625 -17.6875,6.625 -9.768537,0 -17.6875,-2.966114 -17.6875,-6.625 0,-3.658886 7.918963,-6.625 17.6875,-6.625 9.768537,0 17.6875,2.966114 17.6875,6.625 z"
         sodipodi:ry="6.625"
         sodipodi:rx="17.6875"
         sodipodi:cy="39.125"
         sodipodi:cx="24.8125"
         id="path2258"
         style="opacity:0.19886367;color:#000000;fill:url(#radialGradient2260);fill-opacity:1;fill-rule:nonzero;stroke:none;stroke-width:1;marker:none;visibility:visible;display:inline;overflow:visible"
         sodipodi:type="arc" />
      <path
         sodipodi:type="arc"
         style="opacity:0.3125;color:#000000;fill:url(#radialGradient3047);fill-opacity:1;fill-rule:nonzero;stroke:none;stroke-width:1;marker:none;visibility:visible;display:inline;overflow:visible"
         id="path3039"
         sodipodi:cx="24.8125"
         sodipodi:cy="39.125"
         sodipodi:rx="17.6875"
         sodipodi:ry="6.625"
         d="m 42.5,39.125 c 0,3.658886 -7.918963,6.625 -17.6875,6.625 -9.768537,0 -17.6875,-2.966114 -17.6875,-6.625 0,-3.658886 7.918963,-6.625 17.6875,-6.625 9.768537,0 17.6875,2.966114 17.6875,6.625 z"
         transform="matrix(0.836071,0,0,0.685436,-7.959607,15.71781)" />
      <path
         style="color:#000000;fill:url(#linearGradient3055);fill-opacity:1;fill-rule:nonzero;stroke:#888a85;stroke-width:0.9999997;stroke-linecap:butt;stroke-linejoin:miter;stroke-miterlimit:4;stroke-opacity:1;stroke-dasharray:none;stroke-dashoffset:0;marker:none;visibility:visible;display:inline;overflow:visible"
         d="M 17.906713,21.215676 36.899302,40.6474 c 0.768486,0.87827 3.20351,1.557061 4.830485,0 1.571126,-1.503613 1.207621,-3.622864 -0.329351,-5.159837 L 23.176333,15.946056 c 2.25,-6.25 -2.303889,-11.499568 -8.178889,-10.374568 l -1.262514,1.1527294 3.952215,3.7326476 0.219568,3.293516 -2.950842,2.693603 -3.526399,-0.388144 -3.6228634,-3.403296 c 0,0 -1.2701213,1.254904 -1.2701213,1.254904 -0.5907635,5.641317 5.3077257,10.683228 11.3702257,7.308228 z"
         id="path2140"
         sodipodi:nodetypes="cczcccccccccsc"
         inkscape:connector-curvature="0" />
      <path
         sodipodi:nodetypes="cczccccccccccc"
         id="path3057"
         d="m 18.117385,19.9401 19.202882,20.027612 c 0.594907,0.679893 2.479927,1.205365 3.739414,0 1.216253,-1.163989 0.934853,-2.80456 -0.25496,-3.994374 L 22.313189,16.352183 c 1.5,-6.5 -1.858788,-10.0046375 -6.858788,-9.8796375 l -0.270131,0.2733768 3.602923,3.2362667 0.130166,4.181794 -3.613917,3.298483 -4.242306,-0.458209 -3.1765824,-2.991481 -0.3526371,0.430059 c -0.3125,5.96875 6.4917185,8.684765 10.5854685,5.497265 z"
         style="opacity:0.42613639;color:#000000;fill:none;stroke:#ffffff;stroke-width:0.99999917;stroke-linecap:butt;stroke-linejoin:miter;stroke-miterlimit:4;stroke-opacity:1;stroke-dasharray:none;stroke-dashoffset:0;marker:none;visibility:visible;display:inline;overflow:visible"
         inkscape:connector-curvature="0" />
      <rect
         style="opacity:0.17045456;color:#000000;fill:none;stroke:url(#linearGradient3067);stroke-width:0.9999972;stroke-linecap:butt;stroke-linejoin:miter;stroke-miterlimit:4;stroke-opacity:1;stroke-dasharray:none;stroke-dashoffset:0;marker:none;visibility:visible;display:inline;overflow:visible"
         id="rect3059"
         width="23.268276"
         height="2.0554912"
         x="28.185335"
         y="-2.6184492"
         rx="0.88388073"
         ry="0.88388073"
         transform="matrix(0.697938,0.716158,-0.716158,0.697938,0,0)" />
      <path
         style="color:#000000;fill:url(#linearGradient3083);fill-opacity:1;fill-rule:nonzero;stroke:#878f9d;stroke-width:0.9999997;stroke-linecap:butt;stroke-linejoin:miter;stroke-miterlimit:4;stroke-opacity:1;stroke-dasharray:none;stroke-dashoffset:0;marker:none;visibility:visible;display:inline;overflow:visible"
         d="M 22.498794,30.12538 C 23.332335,29.410917 35.782628,16.676871 35.782628,16.676871 l 3.073945,-0.219568 4.830485,-6.6968124 -4.024327,-3.5851919 -6.257674,5.3794063 0,3.073946 -12.734915,13.228942 c -0.60381,0.60381 1.060166,2.926489 1.828652,2.267787 z"
         id="path2144"
         sodipodi:nodetypes="ccccccccc"
         inkscape:connector-curvature="0" />
      <path
         sodipodi:nodetypes="ccccccccc"
         id="path3085"
         d="M 22.401987,29.085455 C 23.04876,28.531078 35.426388,15.855648 35.426388,15.855648 l 2.928583,-0.247999 4.213916,-5.662065 -2.889731,-2.5489894 -5.476578,4.7174724 0.155258,2.850955 -12.676105,13.292323 c -0.468518,0.468518 0.123961,1.33922 0.720256,0.82811 z"
         style="opacity:0.53977272;color:#000000;fill:none;stroke:url(#linearGradient2256);stroke-width:1.00000024;stroke-linecap:butt;stroke-linejoin:miter;stroke-miterlimit:4;stroke-opacity:1;stroke-dasharray:none;stroke-dashoffset:0;marker:none;visibility:visible;display:inline;overflow:visible"
         inkscape:connector-curvature="0" />
      <path
         style="color:#000000;fill:url(#linearGradient3093);fill-opacity:1;fill-rule:nonzero;stroke:#204a87;stroke-width:0.9999997;stroke-linecap:butt;stroke-linejoin:miter;stroke-miterlimit:4;stroke-opacity:1;stroke-dashoffset:0;marker:none;visibility:visible;display:inline;overflow:visible"
         d="m 8.4653111,43.611561 c 1.3165875,1.465229 4.9736849,2.128165 6.5954439,-0.709914 0.707107,-1.237436 2.093943,-4.702802 8.281128,-10.271268 1.039146,-0.934171 2.139909,-3.071138 1.206747,-4.223867 l -2.415243,-2.415243 c -0.988053,-1.097837 -3.734414,-0.585749 -4.861175,0.950876 -3.358757,4.596194 -8.8460727,8.25488 -10.0835097,8.696822 -2.3679195,0.845685 -2.1014106,4.336149 -0.5348231,5.996487 l 1.8114319,1.976107 z"
         id="path2142"
         sodipodi:nodetypes="ccccccscc"
         inkscape:connector-curvature="0" />
      <path
         sodipodi:type="arc"
         style="color:#000000;fill:#ffffff;fill-opacity:1;fill-rule:nonzero;stroke:#a1a1a1;stroke-width:1.13860166;stroke-linecap:butt;stroke-linejoin:miter;stroke-miterlimit:4;stroke-opacity:1;stroke-dasharray:none;stroke-dashoffset:0;marker:none;visibility:visible;display:inline;overflow:visible"
         id="path2146"
         sodipodi:cx="41.875"
         sodipodi:cy="37.5"
         sodipodi:rx="1.375"
         sodipodi:ry="1.375"
         d="m 43.25,37.5 c 0,0.759392 -0.615608,1.375 -1.375,1.375 -0.759392,0 -1.375,-0.615608 -1.375,-1.375 0,-0.759392 0.615608,-1.375 1.375,-1.375 0.759392,0 1.375,0.615608 1.375,1.375 z"
         transform="matrix(0.87827,0,0,0.87827,2.427204,5.077464)" />
      <path
         sodipodi:type="arc"
         style="opacity:0.60227272;color:#000000;fill:#ffffff;fill-opacity:1;fill-rule:nonzero;stroke:none;stroke-width:1;marker:none;visibility:visible;display:inline;overflow:visible"
         id="path3101"
         sodipodi:cx="19.003494"
         sodipodi:cy="28.20101"
         sodipodi:rx="1.767767"
         sodipodi:ry="1.767767"
         d="m 20.771261,28.20101 c 0,0.97631 -0.791456,1.767767 -1.767767,1.767767 -0.97631,0 -1.767767,-0.791457 -1.767767,-1.767767 0,-0.976311 0.791457,-1.767767 1.767767,-1.767767 0.976311,0 1.767767,0.791456 1.767767,1.767767 z"
         transform="matrix(0.570876,0,0,0.570876,9.154848,11.25111)" />
      <path
         style="color:#000000;fill:none;stroke:url(#linearGradient2263);stroke-width:2.29450917;stroke-linecap:round;stroke-linejoin:round;stroke-miterlimit:4;stroke-opacity:1;stroke-dasharray:none;stroke-dashoffset:0;marker:none;visibility:visible;display:inline;overflow:visible"
         d="m 18.678905,29.624807 c 0,0 -7.169891,7.299613 -10.5286477,8.53705"
         id="path3103"
         sodipodi:nodetypes="cc"
         inkscape:connector-curvature="0" />
      <path
         sodipodi:nodetypes="csccccscc"
         id="path2270"
         d="m 8.8060013,42.48669 c 1.4412657,1.745617 4.5995337,2.161229 5.5911597,-0.370589 0.681307,-1.739512 3.333622,-5.665787 8.197584,-10.043353 0.816909,-0.734385 1.682258,-2.414329 0.948666,-3.32053 l -1.898707,-1.898707 c -0.776743,-0.863048 -2.935753,-0.460478 -3.82154,0.747517 -2.640436,3.613229 -8.4833446,8.339554 -9.8957495,8.805626 -2.1867947,0.72161 -1.7769924,3.221299 -0.5454432,4.526549 l 1.42403,1.553487 z"
         style="opacity:0.19886367;color:#000000;fill:none;stroke:#ffffff;stroke-width:0.99999946;stroke-linecap:butt;stroke-linejoin:miter;stroke-miterlimit:4;stroke-opacity:1;stroke-dasharray:none;stroke-dashoffset:0;marker:none;visibility:visible;display:inline;overflow:visible"
         inkscape:connector-curvature="0" />
      <path
         style="opacity:0.27840911;color:#000000;fill:none;stroke:url(#linearGradient2271);stroke-width:2.29450917;stroke-linecap:round;stroke-linejoin:round;stroke-miterlimit:4;stroke-opacity:1;stroke-dashoffset:0;marker:none;visibility:visible;display:inline;overflow:visible"
         d="m 20.824602,31.261024 c 0,0 -7.322763,6.617405 -8.913753,10.860045"
         id="path2247"
         sodipodi:nodetypes="cc"
         inkscape:connector-curvature="0" />
    </g>
  </g>
</svg>
