<?xml version="1.0" encoding="UTF-8" standalone="no"?>
<!-- Created with Inkscape (http://www.inkscape.org/) -->

<svg
   xmlns:dc="http://purl.org/dc/elements/1.1/"
   xmlns:cc="http://creativecommons.org/ns#"
   xmlns:rdf="http://www.w3.org/1999/02/22-rdf-syntax-ns#"
   xmlns:svg="http://www.w3.org/2000/svg"
   xmlns="http://www.w3.org/2000/svg"
   xmlns:xlink="http://www.w3.org/1999/xlink"
   xmlns:sodipodi="http://sodipodi.sourceforge.net/DTD/sodipodi-0.dtd"
   xmlns:inkscape="http://www.inkscape.org/namespaces/inkscape"
   sodipodi:docname="icon.svg"
   inkscape:version="0.48.1 r9760"
   sodipodi:version="0.32"
   id="svg1288"
   height="48px"
   width="48px"
   inkscape:output_extension="org.inkscape.output.svg.inkscape"
   version="1.1"
   inkscape:export-filename="/home/ds1/Projekte/Birthday Adapter/Resources/icon_googleplaypng.png"
   inkscape:export-xdpi="960"
   inkscape:export-ydpi="960">
  <defs
     id="defs3">
    <inkscape:perspective
       sodipodi:type="inkscape:persp3d"
       inkscape:vp_x="0 : 24 : 1"
       inkscape:vp_y="0 : 1000 : 0"
       inkscape:vp_z="48 : 24 : 1"
       inkscape:persp3d-origin="24 : 16 : 1"
       id="perspective48" />
    <radialGradient
       inkscape:collect="always"
       xlink:href="#linearGradient5060"
       id="radialGradient6719"
       gradientUnits="userSpaceOnUse"
       gradientTransform="matrix(-2.774389,0,0,1.969706,112.7623,-872.8854)"
       cx="605.71429"
       cy="486.64789"
       fx="605.71429"
       fy="486.64789"
       r="117.14286" />
    <linearGradient
       inkscape:collect="always"
       id="linearGradient5060">
      <stop
         style="stop-color:black;stop-opacity:1;"
         offset="0"
         id="stop5062" />
      <stop
         style="stop-color:black;stop-opacity:0;"
         offset="1"
         id="stop5064" />
    </linearGradient>
    <radialGradient
       inkscape:collect="always"
       xlink:href="#linearGradient5060"
       id="radialGradient6717"
       gradientUnits="userSpaceOnUse"
       gradientTransform="matrix(2.774389,0,0,1.969706,-1891.633,-872.8854)"
       cx="605.71429"
       cy="486.64789"
       fx="605.71429"
       fy="486.64789"
       r="117.14286" />
    <linearGradient
       id="linearGradient5048">
      <stop
         style="stop-color:black;stop-opacity:0;"
         offset="0"
         id="stop5050" />
      <stop
         id="stop5056"
         offset="0.5"
         style="stop-color:black;stop-opacity:1;" />
      <stop
         style="stop-color:black;stop-opacity:0;"
         offset="1"
         id="stop5052" />
    </linearGradient>
    <linearGradient
       inkscape:collect="always"
       xlink:href="#linearGradient5048"
       id="linearGradient6715"
       gradientUnits="userSpaceOnUse"
       gradientTransform="matrix(2.774389,0,0,1.969706,-1892.179,-872.8854)"
       x1="302.85715"
       y1="366.64789"
       x2="302.85715"
       y2="609.50507" />
    <linearGradient
       id="linearGradient2563">
      <stop
         id="stop2565"
         offset="0"
         style="stop-color:#e2e2e2;stop-opacity:1;" />
      <stop
         id="stop2567"
         offset="1.0000000"
         style="stop-color:#9f9f9f;stop-opacity:1.0000000;" />
    </linearGradient>
    <linearGradient
       id="linearGradient2551"
       inkscape:collect="always">
      <stop
         id="stop2553"
         offset="0"
         style="stop-color:#000000;stop-opacity:1;" />
      <stop
         id="stop2555"
         offset="1"
         style="stop-color:#000000;stop-opacity:0;" />
    </linearGradient>
    <linearGradient
       id="linearGradient2526">
      <stop
         id="stop2528"
         offset="0.0000000"
         style="stop-color:#e7ebeb;stop-opacity:1.0000000;" />
      <stop
         style="stop-color:#e6ebeb;stop-opacity:1.0000000;"
         offset="0.50000000"
         id="stop2534" />
      <stop
         id="stop2530"
         offset="1.0000000"
         style="stop-color:#ffffff;stop-opacity:1.0000000;" />
    </linearGradient>
    <linearGradient
       gradientTransform="translate(0.000000,0.785718)"
       gradientUnits="userSpaceOnUse"
       y2="28.428572"
       x2="42.214283"
       y1="14.428571"
       x1="13.357142"
       id="linearGradient2532"
       xlink:href="#linearGradient2526"
       inkscape:collect="always" />
    <radialGradient
       gradientUnits="userSpaceOnUse"
       gradientTransform="matrix(1.000000,0.000000,0.000000,0.751938,1.196962e-16,7.193799)"
       r="18.428572"
       fy="29.000000"
       fx="26.000000"
       cy="29.000000"
       cx="26.000000"
       id="radialGradient2557"
       xlink:href="#linearGradient2551"
       inkscape:collect="always" />
    <linearGradient
       gradientTransform="translate(0.000000,0.785718)"
       gradientUnits="userSpaceOnUse"
       y2="30.785713"
       x2="42.214284"
       y1="30.785713"
       x1="6.7857148"
       id="linearGradient2569"
       xlink:href="#linearGradient2563"
       inkscape:collect="always" />
    <linearGradient
       y2="28.428572"
       x2="42.214283"
       y1="14.428571"
       x1="13.357142"
       gradientTransform="translate(2.045771e-15,0.785718)"
       gradientUnits="userSpaceOnUse"
       id="linearGradient2582"
       xlink:href="#linearGradient2526"
       inkscape:collect="always" />
    <radialGradient
       inkscape:collect="always"
       xlink:href="#linearGradient3150"
       id="radialGradient3156"
       cx="10.748654"
       cy="10.457643"
       fx="10.748654"
       fy="10.457643"
       r="6.6449099"
       gradientTransform="matrix(-0.842757,0,0,-0.35721,19.80716,14.19321)"
       gradientUnits="userSpaceOnUse" />
    <linearGradient
       inkscape:collect="always"
       id="linearGradient3150">
      <stop
         style="stop-color:#2e3436;stop-opacity:1;"
         offset="0"
         id="stop3152" />
      <stop
         style="stop-color:#2e3436;stop-opacity:0;"
         offset="1"
         id="stop3154" />
    </linearGradient>
    <linearGradient
       inkscape:collect="always"
       id="linearGradient2420">
      <stop
         style="stop-color:#f57900;stop-opacity:1;"
         offset="0"
         id="stop2422" />
      <stop
         style="stop-color:#f57900;stop-opacity:0;"
         offset="1"
         id="stop2424" />
    </linearGradient>
    <linearGradient
       inkscape:collect="always"
       id="linearGradient2412">
      <stop
         style="stop-color:#f57900;stop-opacity:1;"
         offset="0"
         id="stop2414" />
      <stop
         style="stop-color:#f57900;stop-opacity:0;"
         offset="1"
         id="stop2416" />
    </linearGradient>
    <linearGradient
       inkscape:collect="always"
       id="linearGradient2227">
      <stop
         style="stop-color:#eeeeec;stop-opacity:1;"
         offset="0"
         id="stop2229" />
      <stop
         style="stop-color:#eeeeec;stop-opacity:0;"
         offset="1"
         id="stop2231" />
    </linearGradient>
    <linearGradient
       inkscape:collect="always"
       id="linearGradient2306">
      <stop
         style="stop-color:#fcaf3e;stop-opacity:1;"
         offset="0"
         id="stop2308" />
      <stop
         style="stop-color:#fcaf3e;stop-opacity:0;"
         offset="1"
         id="stop2310" />
    </linearGradient>
    <radialGradient
       inkscape:collect="always"
       xlink:href="#linearGradient3150"
       id="radialGradient3167"
       gradientUnits="userSpaceOnUse"
       gradientTransform="matrix(-0.842757,0,0,-0.35721,19.80716,14.19321)"
       cx="10.748654"
       cy="10.457643"
       fx="10.748654"
       fy="10.457643"
       r="6.6449099" />
    <linearGradient
       inkscape:collect="always"
       xlink:href="#linearGradient2420"
       id="linearGradient3169"
       gradientUnits="userSpaceOnUse"
       gradientTransform="translate(-119.48023,-6.219293)"
       x1="12.551172"
       y1="21.325607"
       x2="12.551172"
       y2="15.804798" />
    <radialGradient
       inkscape:collect="always"
       xlink:href="#linearGradient2412"
       id="radialGradient3171"
       gradientUnits="userSpaceOnUse"
       gradientTransform="matrix(1,0,0,0.250074,-119.48023,2.029895)"
       cx="11.998844"
       cy="11"
       fx="11.998844"
       fy="11"
       r="7.9976373" />
    <linearGradient
       inkscape:collect="always"
       xlink:href="#linearGradient2227"
       id="linearGradient3173"
       gradientUnits="userSpaceOnUse"
       gradientTransform="matrix(1,0,0,0.978769,-115.48023,-4.095964)"
       x1="4.9990835"
       y1="7.0454555"
       x2="8"
       y2="7.0454555" />
    <linearGradient
       inkscape:collect="always"
       xlink:href="#linearGradient2306"
       id="linearGradient3175"
       gradientUnits="userSpaceOnUse"
       gradientTransform="matrix(2.463041,0,0,1.13907,-127.31331,-3.54335)"
       x1="6.3242626"
       y1="2.3812122"
       x2="6.3242626"
       y2="1.3218555" />
    <linearGradient
       inkscape:collect="always"
       xlink:href="#linearGradient2306"
       id="linearGradient3177"
       gradientUnits="userSpaceOnUse"
       gradientTransform="matrix(2.463041,0,0,1.137329,-123.31333,-4.541513)"
       x1="6.3242626"
       y1="2.3812122"
       x2="6.3242626"
       y2="1.2165204" />
    <linearGradient
       inkscape:collect="always"
       xlink:href="#linearGradient2306"
       id="linearGradient3179"
       gradientUnits="userSpaceOnUse"
       gradientTransform="matrix(2.463041,0,0,1.13699,-119.33113,-3.541568)"
       x1="6.3242626"
       y1="2.3812122"
       x2="6.3242626"
       y2="1.2212343" />
    <linearGradient
       inkscape:collect="always"
       xlink:href="#linearGradient2227"
       id="linearGradient3181"
       gradientUnits="userSpaceOnUse"
       gradientTransform="matrix(1,0,0,0.646248,-119.48213,-1.778926)"
       x1="4.9990835"
       y1="7.0454555"
       x2="8"
       y2="7.0454555" />
    <linearGradient
       inkscape:collect="always"
       xlink:href="#linearGradient2227"
       id="linearGradient3183"
       gradientUnits="userSpaceOnUse"
       gradientTransform="matrix(1,0,0,0.652513,-111.48023,-1.80374)"
       x1="4.9990835"
       y1="7.0454555"
       x2="8"
       y2="7.0454555" />
  </defs>
  <sodipodi:namedview
     inkscape:window-y="19"
     inkscape:window-x="0"
     inkscape:window-height="779"
     inkscape:window-width="1278"
     inkscape:document-units="px"
     inkscape:grid-bbox="true"
     showgrid="false"
     inkscape:current-layer="layer1"
     inkscape:cy="24.165113"
     inkscape:cx="-87.670987"
     inkscape:zoom="2.8284271"
     inkscape:pageshadow="2"
     inkscape:pageopacity="0.0"
     borderopacity="1.0"
     bordercolor="#666666"
     pagecolor="#ffffff"
     id="base"
     inkscape:window-maximized="1" />
  <metadata
     id="metadata4">
    <rdf:RDF>
      <cc:Work
         rdf:about="">
        <dc:format>image/svg+xml</dc:format>
        <dc:type
           rdf:resource="http://purl.org/dc/dcmitype/StillImage" />
        <dc:title></dc:title>
        <dc:creator>
          <cc:Agent>
            <dc:title>Jakub Steiner</dc:title>
          </cc:Agent>
        </dc:creator>
        <dc:source>http://jimmac.musichall.cz</dc:source>
        <dc:subject>
          <rdf:Bag>
            <rdf:li>calendar</rdf:li>
            <rdf:li>date</rdf:li>
            <rdf:li>time</rdf:li>
            <rdf:li>cal</rdf:li>
          </rdf:Bag>
        </dc:subject>
        <cc:license
           rdf:resource="http://creativecommons.org/licenses/publicdomain/" />
      </cc:Work>
      <cc:License
         rdf:about="http://creativecommons.org/licenses/publicdomain/">
        <cc:permits
           rdf:resource="http://creativecommons.org/ns#Reproduction" />
        <cc:permits
           rdf:resource="http://creativecommons.org/ns#Distribution" />
        <cc:permits
           rdf:resource="http://creativecommons.org/ns#DerivativeWorks" />
      </cc:License>
    </rdf:RDF>
  </metadata>
  <g
     inkscape:groupmode="layer"
     inkscape:label="Layer 1"
     id="layer1">
    <g
       id="g3150">
      <g
         id="g6707"
         transform="matrix(2.294847e-2,0,0,2.276812e-2,44.75587,36.74254)">
        <rect
           y="-150.69685"
           x="-1559.2523"
           height="478.35718"
           width="1339.6335"
           id="rect6709"
           style="opacity:0.40206185;color:black;fill:url(#linearGradient6715);fill-opacity:1;fill-rule:nonzero;stroke:none;stroke-width:1;stroke-linecap:round;stroke-linejoin:miter;marker:none;marker-start:none;marker-mid:none;marker-end:none;stroke-miterlimit:4;stroke-dasharray:none;stroke-dashoffset:0;stroke-opacity:1;visibility:visible;display:inline;overflow:visible" />
        <path
           sodipodi:nodetypes="cccc"
           id="path6711"
           d="M -219.61876,-150.68038 C -219.61876,-150.68038 -219.61876,327.65041 -219.61876,327.65041 C -76.744594,328.55086 125.78146,220.48075 125.78138,88.454235 C 125.78138,-43.572302 -33.655436,-150.68036 -219.61876,-150.68038 z "
           style="opacity:0.40206185;color:black;fill:url(#radialGradient6717);fill-opacity:1;fill-rule:nonzero;stroke:none;stroke-width:1;stroke-linecap:round;stroke-linejoin:miter;marker:none;marker-start:none;marker-mid:none;marker-end:none;stroke-miterlimit:4;stroke-dasharray:none;stroke-dashoffset:0;stroke-opacity:1;visibility:visible;display:inline;overflow:visible" />
        <path
           style="opacity:0.40206185;color:black;fill:url(#radialGradient6719);fill-opacity:1;fill-rule:nonzero;stroke:none;stroke-width:1;stroke-linecap:round;stroke-linejoin:miter;marker:none;marker-start:none;marker-mid:none;marker-end:none;stroke-miterlimit:4;stroke-dasharray:none;stroke-dashoffset:0;stroke-opacity:1;visibility:visible;display:inline;overflow:visible"
           d="M -1559.2523,-150.68038 C -1559.2523,-150.68038 -1559.2523,327.65041 -1559.2523,327.65041 C -1702.1265,328.55086 -1904.6525,220.48075 -1904.6525,88.454235 C -1904.6525,-43.572302 -1745.2157,-150.68036 -1559.2523,-150.68038 z "
           id="path6713"
           sodipodi:nodetypes="cccc" />
      </g>
      <path
         style="fill:#a7a7a7;fill-opacity:1.0000000;fill-rule:evenodd;stroke:#656565;stroke-width:1.0000000px;stroke-linecap:butt;stroke-linejoin:miter;stroke-opacity:1.0000000"
         d="M 4.8571430,38.428571 C 4.6428572,39.428571 5.4642859,40.464285 6.8214287,40.428571 L 43.000000,40.428571 C 44.285714,40.392857 44.714286,39.214285 44.428572,38.249999 L 36.571429,9.4285713 L 10.571429,9.4285713 L 4.8571430,38.428571 z "
         id="path1316"
         sodipodi:nodetypes="ccccccc" />
      <path
         style="opacity:0.10857142;color:#000000;fill:#000000;fill-opacity:1.0000000;fill-rule:evenodd;stroke:#000000;stroke-width:0.99999958;stroke-linecap:butt;stroke-linejoin:miter;marker:none;marker-start:none;marker-mid:none;marker-end:none;stroke-miterlimit:4.0000000;stroke-dasharray:none;stroke-dashoffset:0.0000000;stroke-opacity:1.0000000;visibility:visible;display:inline;overflow:visible;font-family:Bitstream Vera Sans"
         d="M 9.1625040,30.806458 L 39.395095,30.806458 C 40.252297,30.806458 40.942392,31.478744 40.942392,32.313825 L 42.269580,37.114760 C 42.269580,37.949841 41.579486,38.622127 40.722283,38.622127 L 8.2777114,38.622127 C 7.4205088,38.622127 6.7304142,37.949841 6.7304142,37.114760 L 7.6152068,32.313825 C 7.6152068,31.478744 8.3053014,30.806458 9.1625040,30.806458 z "
         id="path2575"
         sodipodi:nodetypes="ccccccccc" />
      <path
         sodipodi:nodetypes="ccccccc"
         id="path2520"
         d="M 6.0478436,37.805569 C 5.8479823,38.738255 5.6491963,39.385227 6.5227626,39.385227 L 42.837439,39.385227 C 43.753496,39.385227 43.579187,38.645537 43.312705,37.746161 L 35.770172,10.471961 L 11.520336,10.471961 L 6.0478436,37.805569 z "
         style="fill:none;fill-opacity:1.0000000;fill-rule:evenodd;stroke:#ffffff;stroke-width:0.99999970px;stroke-linecap:butt;stroke-linejoin:miter;stroke-opacity:0.34463277" />
      <path
         sodipodi:nodetypes="ccccccccc"
         id="path2518"
         d="M 9.6418018,29.928574 L 38.929626,29.928574 C 39.760041,29.928574 40.428570,30.579851 40.428570,31.388835 L 41.714284,36.039742 C 41.714284,36.848726 41.045755,37.500003 40.215340,37.500003 L 8.7846589,37.500003 C 7.9542438,37.500003 7.2857146,36.848726 7.2857146,36.039742 L 8.1428575,31.388835 C 8.1428575,30.579851 8.8113867,29.928574 9.6418018,29.928574 z "
         style="opacity:1.0000000;color:#000000;fill:#c5c5c5;fill-opacity:1.0000000;fill-rule:evenodd;stroke:#696969;stroke-width:0.99999964;stroke-linecap:butt;stroke-linejoin:miter;marker:none;marker-start:none;marker-mid:none;marker-end:none;stroke-miterlimit:4.0000000;stroke-dasharray:none;stroke-dashoffset:0.0000000;stroke-opacity:1.0000000;visibility:visible;display:inline;overflow:visible;font-family:Bitstream Vera Sans" />
      <path
         style="color:#000000;fill:url(#linearGradient2569);fill-opacity:1.0000000;fill-rule:evenodd;stroke:#696969;stroke-width:0.99999964;stroke-linecap:butt;stroke-linejoin:miter;marker:none;marker-start:none;marker-mid:none;marker-end:none;stroke-miterlimit:4.0000000;stroke-dashoffset:0.0000000;stroke-opacity:1.0000000;visibility:visible;display:inline;overflow:visible"
         d="M 9.6418018,27.785717 L 38.929626,27.785717 C 39.760041,27.785717 40.428570,28.436994 40.428570,29.245978 L 41.714284,33.896885 C 41.714284,34.705869 41.045755,35.357146 40.215340,35.357146 L 8.7846589,35.357146 C 7.9542438,35.357146 7.2857146,34.705869 7.2857146,33.896885 L 8.1428575,29.245978 C 8.1428575,28.436994 8.8113867,27.785717 9.6418018,27.785717 z "
         id="rect2225"
         sodipodi:nodetypes="ccccccccc" />
      <g
         id="g2578"
         transform="matrix(0.942549,0.000000,0.000000,0.942549,-0.222619,1.855860)">
        <path
           sodipodi:nodetypes="cczczcc"
           id="path2524"
           d="M 10.891973,11.500004 L 6.5714281,33.214290 C 6.5714281,33.214290 32.857143,33.214291 32.857143,33.214291 C 45.441975,33.214291 48.085306,29.214290 48.085306,29.214290 C 48.085306,29.214290 44.728164,28.035719 43.299593,23.071433 C 43.299593,23.071433 40.238640,11.500004 40.238640,11.500004 L 10.891973,11.500004 z "
           style="fill:url(#linearGradient2582);fill-opacity:1.0000000;fill-rule:evenodd;stroke:#696969;stroke-width:1.0609524px;stroke-linecap:butt;stroke-linejoin:miter;stroke-opacity:1.0000000" />
        <path
           style="fill:none;fill-opacity:1.0000000;fill-rule:evenodd;stroke:#ffffff;stroke-width:1.0609519px;stroke-linecap:butt;stroke-linejoin:miter;stroke-opacity:1.0000000"
           d="M 11.803734,12.474609 L 7.8122567,32.239668 C 7.8122567,32.239668 24.956518,32.239669 32.238382,32.239669 C 43.465021,32.239669 46.348811,29.388804 46.348811,29.388804 C 46.348811,29.388804 43.355751,27.525962 42.055419,23.007305 C 42.055419,23.007305 39.316856,12.546038 39.316856,12.546038 L 11.803734,12.474609 z "
           id="path2571"
           sodipodi:nodetypes="cccczcc" />
      </g>
      <path
         style="color:#000000;fill:#9b9b9b;fill-opacity:1.0000000;fill-rule:evenodd;stroke:#696969;stroke-width:0.99999952;stroke-linecap:butt;stroke-linejoin:miter;stroke-miterlimit:4.0000000;stroke-dashoffset:0.0000000;stroke-opacity:1.0000000;marker:none;marker-start:none;marker-mid:none;marker-end:none;visibility:visible;display:inline;overflow:visible"
         d="M 11.315699,7.4285707 L 36.494515,7.4285707 C 37.367632,7.4285707 38.070539,8.0973414 38.070539,8.9280566 L 38.427682,11.071942 C 38.427682,11.902657 37.724775,12.571428 36.851658,12.571428 L 10.958556,12.571428 C 10.085439,12.571428 9.3825323,11.902657 9.3825323,11.071942 L 9.7396752,8.9280566 C 9.7396752,8.0973414 10.442582,7.4285707 11.315699,7.4285707 z "
         id="rect2522"
         sodipodi:nodetypes="ccccccccc" />
      <path
         sodipodi:type="arc"
         style="opacity:0.52571428;color:#000000;fill:#fefefe;fill-opacity:1.0000000;fill-rule:evenodd;stroke:none;stroke-width:0.99999964;stroke-linecap:butt;stroke-linejoin:miter;marker:none;marker-start:none;marker-mid:none;marker-end:none;stroke-miterlimit:4.0000000;stroke-dasharray:none;stroke-dashoffset:0.0000000;stroke-opacity:1.0000000;visibility:visible;display:inline;overflow:visible"
         id="path2559"
         sodipodi:cx="11.500000"
         sodipodi:cy="9.9285717"
         sodipodi:rx="1.3571428"
         sodipodi:ry="1.3571428"
         d="M 12.857143 9.9285717 A 1.3571428 1.3571428 0 1 1  10.142857,9.9285717 A 1.3571428 1.3571428 0 1 1  12.857143 9.9285717 z"
         transform="matrix(0.684211,0.000000,0.000000,0.684211,3.560154,2.278197)" />
      <path
         style="opacity:0.30285713;fill:none;fill-opacity:0.75000000;fill-rule:evenodd;stroke:#ffffff;stroke-width:1.0000001px;stroke-linecap:round;stroke-linejoin:miter;stroke-opacity:1.0000000"
         d="M 13.042053,8.6010151 L 36.371309,8.6010151"
         id="path2561"
         sodipodi:nodetypes="cc" />
    </g>
    <g
       id="g3133"
       transform="matrix(0.86531313,0,0,0.86531313,117.95482,17.81649)">
      <path
         transform="matrix(1.35442,0,0,1.267136,-122.03842,0.52945302)"
         d="m 17.393564,10.457643 c 0,1.307559 -2.975027,2.367545 -6.64491,2.367545 -3.669882,0 -6.6449095,-1.059986 -6.6449095,-2.367545 0,-1.3075595 2.9750275,-2.3675456 6.6449095,-2.3675456 3.669883,0 6.64491,1.0599861 6.64491,2.3675456 z"
         sodipodi:ry="2.3675451"
         sodipodi:rx="6.6449099"
         sodipodi:cy="10.457643"
         sodipodi:cx="10.748654"
         id="path3140"
         style="opacity:0.5;fill:url(#radialGradient3167);fill-opacity:1;stroke:none"
         sodipodi:type="arc" />
      <path
         sodipodi:nodetypes="ccsssccc"
         id="path2187"
         d="m -115.91854,5.274393 0,6.304633 c 0,0 0,0.294874 0,0.450332 0,1.243661 3.78619,2.251655 8.45394,2.251655 4.66774,0 8.453934,-1.007994 8.453934,-2.251655 l 0,-0.450332 0,-6.304633 -16.907874,0 z"
         style="fill:#fce94f;fill-opacity:1;stroke:#c4a000;stroke-width:1.00000024;stroke-miterlimit:4;stroke-opacity:1;stroke-dasharray:none"
         inkscape:connector-curvature="0" />
      <path
         sodipodi:nodetypes="ccssscccssscc"
         id="path2346"
         d="m -115.48023,8.780707 0,1.04241 c 0.29831,0.09667 0.62058,0.178995 0.96429,0.261161 1.83308,0.438215 4.31009,0.696429 7.03571,0.696429 2.72562,0 5.20264,-0.258214 7.03571,-0.696429 0.34371,-0.08217 0.665976,-0.164494 0.96429,-0.261161 l 0,-1.030505 -0.357142,0.13095 c -0.273528,0.09022 -0.586878,0.179477 -0.928568,0.261161 -1.68218,0.402141 -4.07964,0.667412 -6.71429,0.667412 -2.63465,0 -5.03211,-0.265271 -6.71428,-0.667412 -0.3417,-0.08168 -0.65505,-0.170942 -0.92858,-0.261161 l -0.35714,-0.142855 z"
         style="fill:#c17d11;fill-opacity:1;stroke:none"
         inkscape:connector-curvature="0" />
      <path
         sodipodi:nodetypes="cssssscc"
         id="path2335"
         d="m -114.81289,6.280707 c 0,0 -0.33216,5.525124 -0.0574,5.694687 0.27477,0.169563 0.94313,0.496935 1.64596,0.680313 1.40566,0.366757 3.4602,0.625 5.74663,0.625 2.28644,0 4.34098,-0.258243 5.74664,-0.625 0.70283,-0.183378 1.748757,-0.534481 1.747514,-0.82758 l -0.02353,-5.54742 -14.80584,0 z"
         style="opacity:0.6;fill:url(#linearGradient3169);fill-opacity:1;stroke:#ffffff;stroke-width:0.99999964;stroke-miterlimit:4;stroke-opacity:1"
         inkscape:connector-curvature="0" />
      <path
         id="path1307"
         d="m -99.010663,4.780674 c 0,1.379961 -3.787367,2.49993 -8.453937,2.49993 -4.66657,0 -8.45393,-1.119969 -8.45393,-2.49993 0,-1.379962 3.78736,-2.49993 8.45393,-2.49993 4.66657,0 8.453937,1.119968 8.453937,2.49993 z"
         style="fill:#fce94f;fill-opacity:1;stroke:#c4a000;stroke-width:1.0000006;stroke-miterlimit:4;stroke-opacity:1"
         inkscape:connector-curvature="0" />
      <path
         sodipodi:nodetypes="csssssssssc"
         id="path2343"
         d="m -107.48138,3.280707 c -2.29627,0 -4.36138,0.283893 -5.76662,0.6875 -0.70262,0.201804 -1.24623,0.436992 -1.52325,0.625 -0.27703,0.188008 -0.27703,0.186992 0,0.375 0.27702,0.188008 0.82063,0.423196 1.52325,0.625 1.40524,0.403607 3.47035,0.6875 5.76662,0.6875 2.29626,0 4.36137,-0.283893 5.76661,-0.6875 0.70262,-0.201804 1.24623,-0.436992 1.52325,-0.625 0.277027,-0.188008 0.277027,-0.186992 0,-0.375 -0.27702,-0.188008 -0.82063,-0.423196 -1.52325,-0.625 -1.40524,-0.403607 -3.47035,-0.6875 -5.76661,-0.6875 z"
         style="opacity:0.6;fill:url(#radialGradient3171);fill-opacity:1;stroke:#ffffff;stroke-width:1.00000048;stroke-miterlimit:4;stroke-opacity:1"
         inkscape:connector-curvature="0" />
      <path
         sodipodi:nodetypes="ccccc"
         id="path2205"
         d="m -108.47833,-0.21929298 c 0,0 1.06404,0.935966 2,0 l 0,5.50543598 c -0.65704,0.602888 -1.33137,0.613512 -2,0 l 0,-5.50543598 z"
         style="fill:#3465a4;fill-opacity:1;stroke:none"
         inkscape:connector-curvature="0" />
      <path
         sodipodi:nodetypes="ccccc"
         id="path2235"
         d="m -108.48023,-0.18088798 2,0 0,5.50543598 c -0.65705,0.602888 -1.33137,0.613512 -2,0 l 0,-5.50543598 z"
         style="fill:url(#linearGradient3173);fill-opacity:1;stroke:none"
         inkscape:connector-curvature="0" />
      <path
         sodipodi:nodetypes="csss"
         id="path2289"
         d="m -111.48023,0.28608402 c -0.82799,0 -1.49998,-0.673338 -1.49998,-1.50298702 0,-0.829648 0.67199,-1.502986 1.49998,-1.502986 0.53781,0 0.82798,3.00597302 0,3.00597302 z"
         style="fill:url(#linearGradient3175);fill-opacity:1;stroke:#f57900;stroke-width:1.00000119;stroke-miterlimit:4;stroke-opacity:1"
         inkscape:connector-curvature="0" />
      <path
         sodipodi:nodetypes="csss"
         id="path2322"
         d="m -107.48025,-0.71793198 c -0.82799,0 -1.49998,-0.67230902 -1.49998,-1.50068902 0,-0.828381 0.67199,-1.500689 1.49998,-1.500689 0.53781,0 0.82798,3.00137802 0,3.00137802 z"
         style="fill:url(#linearGradient3177);fill-opacity:1;stroke:#f57900;stroke-width:1.00000131;stroke-miterlimit:4;stroke-opacity:1"
         inkscape:connector-curvature="0" />
      <path
         sodipodi:nodetypes="csss"
         id="path2326"
         d="m -103.49806,0.28087402 c -0.82799,0 -1.49997,-0.672109 -1.49997,-1.50024202 0,-0.828134 0.67198,-1.500242 1.49997,-1.500242 0.53781,0 0.82799,3.00048402 0,3.00048402 z"
         style="fill:url(#linearGradient3179);fill-opacity:1;stroke:#f57900;stroke-width:1.00000107;stroke-miterlimit:4;stroke-opacity:1"
         inkscape:connector-curvature="0" />
      <path
         sodipodi:nodetypes="ccccc"
         id="path2400"
         d="m -112.48023,0.78070702 c 0,0 1.06404,0.61798598 2,0 l 0,3.63504998 c -0.65705,0.398067 -1.33137,0.405081 -2,0 l 0,-3.63504998 z"
         style="fill:#3465a4;fill-opacity:1;stroke:none"
         inkscape:connector-curvature="0" />
      <path
         sodipodi:nodetypes="ccccc"
         id="path2402"
         d="m -112.48213,0.80606502 2,0 0,3.63504998 c -0.65705,0.398066 -1.33138,0.405081 -2,0 l 0,-3.63504998 z"
         style="fill:url(#linearGradient3181);fill-opacity:1;stroke:none"
         inkscape:connector-curvature="0" />
      <path
         sodipodi:nodetypes="ccccc"
         id="path2406"
         d="m -104.47833,0.78070702 c 0,0 1.06404,0.62397698 2,0 l 0,3.67029198 c -0.65704,0.401925 -1.33137,0.409008 -2,0 l 0,-3.67029198 z"
         style="fill:#3465a4;fill-opacity:1;stroke:none"
         inkscape:connector-curvature="0" />
      <path
         sodipodi:nodetypes="ccccc"
         id="path2408"
         d="m -104.48023,0.80631002 2,0 0,3.67029198 c -0.65705,0.401925 -1.33137,0.409008 -2,0 l 0,-3.67029198 z"
         style="fill:url(#linearGradient3183);fill-opacity:1;stroke:none"
         inkscape:connector-curvature="0" />
    </g>
  </g>
</svg>
